<svg xmlns="http://www.w3.org/2000/svg" xmlns:xlink="http://www.w3.org/1999/xlink" aria-hidden="true" role="img" class="iconify iconify--logos" width="31.88" height="32" preserveAspectRatio="xMidYMid meet" viewBox="0 0 256 257"><defs><linearGradient id="IconifyId1813088fe1fbc01fb466" x1="-.828%" x2="57.636%" y1="7.652%" y2="78.411%"><stop offset="0%" stop-color="#41D1FF"></stop><stop offset="100%" stop-color="#BD34FE"></stop></linearGradient><linearGradient id="IconifyId1813088fe1fbc01fb467" x1="43.376%" x2="50.316%" y1="2.242%" y2="89.03%"><stop offset="0%" stop-color="#41D1FF"></stop><stop offset="100%" stop-color="#BD34FE"></stop></linearGradient></defs><path fill="url(#IconifyId1813088fe1fbc01fb466)" d="M255.153 37.938L134.897 252.976c-2.483 4.44-8.862 4.466-11.382.048L.875 37.958c-2.746-4.814 1.371-10.646 6.827-9.67l120.385 21.517a6.537 6.537 0 0 0 2.322-.004l117.867-21.483c5.438-.991 9.574 4.796 6.877 9.62Z"></path><path fill="url(#IconifyId1813088fe1fbc01fb467)" d="M185.432.063L96.44 17.501a3.268 3.268 0 0 0-2.634 3.014l-5.474 92.456a3.268 3.268 0 0 0 3.997 3.378l24.777-5.718c2.318-.535 4.413 1.507 3.936 3.838l-7.361 36.047c-.495 2.426 1.782 4.5 4.151 3.78l15.304-4.649c2.372-.72 4.652 1.36 4.15 3.788l-8.114 39.453c-.612 2.962 3.377 4.52 5.55 2.268l1.143-1.244a3.268 3.268 0 0 0 .094-4.366L159.75 103.6a3.268 3.268 0 0 1 4.098-4.68l80.661-32.664c2.59-1.25 5.728.98 5.176 3.832l-30.43 146.71c-.486 2.35 1.71 4.39 4.085 3.68l18.05-5.6c2.35-.729 4.434 1.438 3.92 3.836l-7.89 38.68c-.5 2.436 1.81 4.51 4.15 3.78l18.03-5.6c2.35-.728 4.434 1.438 3.92 3.836l-5.58 27.34c-.4 1.96 1.35 3.657 3.307 3.657h111.24c2.61 0 4.627-2.27 4.27-4.868l-15.33-98.82c-.33-2.14-2.15-3.6-4.28-3.4l-55.2 5.03c-2.31.21-4.25-1.77-3.93-4.08l11.28-74.44c.32-2.12 2.51-3.51 4.59-2.95l60.04 15.56c2.08.54 4.17-.93 4.37-3.09l12.97-121.85c.15-1.49-1.31-2.53-2.82-2.17L185.43.06Z"></path></svg>
